<?xml version="1.0" standalone="no"?>
<!DOCTYPE svg PUBLIC "-//W3C//DTD SVG 20010904//EN"
 "http://www.w3.org/TR/2001/REC-SVG-20010904/DTD/svg10.dtd">
<svg version="1.0" xmlns="http://www.w3.org/2000/svg"
 width="249.000000pt" height="163.000000pt" viewBox="0 0 249.000000 163.000000"
 preserveAspectRatio="xMidYMid meet">

<g transform="translate(0.000000,163.000000) scale(0.100000,-0.100000)"
fill="#F1481B" stroke="none">
<path d="M2160 1610 c-142 -27 -238 -97 -322 -235 -81 -134 -95 -223 -108
-665 -12 -426 -25 -514 -81 -554 -40 -27 -75 -20 -118 24 -51 52 -84 145 -145
400 -25 107 -73 308 -105 445 -60 255 -83 325 -127 401 -81 137 -244 196 -369
132 -99 -51 -184 -171 -214 -303 -6 -27 -32 -210 -56 -405 -25 -195 -53 -384
-61 -420 -31 -134 -93 -223 -180 -256 -43 -16 -168 -16 -206 0 -24 11 -51 -35
-52 -87 -1 -40 1 -42 39 -56 24 -9 79 -15 135 -15 86 -1 100 2 154 29 81 41
159 119 196 196 45 95 66 207 110 568 45 377 58 440 102 523 55 103 120 136
200 100 97 -42 113 -89 258 -717 81 -348 108 -441 156 -536 44 -88 74 -122
136 -153 126 -63 267 -5 317 129 29 78 41 216 51 570 6 234 13 341 25 400 34
160 106 270 214 322 46 23 69 28 131 27 41 0 99 -6 129 -13 50 -13 55 -12 67
4 19 26 29 85 17 104 -20 32 -204 58 -293 41z"/>
</g>
</svg>
