<svg xmlns="http://www.w3.org/2000/svg" width="265.3" height="120" version="1" viewBox="0 0 199 90">
  <g fill="#FF2600">
    <path d="M101 6c-.6 1-6.7 17.8-13.6 37.2-7 19.4-12.7 35.4-13 35.6 0 .2-2.4-1.7-5-4.2L64.6 70h-56l4 4c2 2.3 5.7 5 8 6.2 8 4.3 12.5 4.8 43 4.8h29L99 66.8l18.5-54.6c.7-2 2-1.4 6.6 3.3l4.5 4.5h27.8c16 0 27.7-.4 27.7-1 0-1.5-9-8.7-13.7-11-7-3.3-14.2-4-42.5-4C103 4 102 4 101 6zM28.3 6.5c-5 1.5-13 6.4-16.3 10L9.7 19h55.6l3.8-3.5c4-3.4 12-8 17-9.6 1.4-.5-10-.8-25.5-.8-20.5 0-29 .3-32.2 1.3z"/>
    <path d="M4 28.2C3 29.5 2 33 1.3 35.7L.2 41H56l.6-2.8c.3-1.5 1.2-4.5 2-6.7.8-2.3 1.4-4.4 1.4-4.8 0-.4-12.4-.7-27.5-.7C5 26 5 26 4 28.2zM133.7 26.6c-.3.4 0 2 .8 3.5 1 1.7 2 4.6 2.3 6.7l.8 3.8 27.7.3c15.2 0 27.7 0 27.7-.6 0-1.8-3.3-11.8-4.2-13-.8-1-7.6-1.2-27.8-1.2-14.6 0-27 .3-27.3.6zM0 49c0 .4 1 3.8 2 7.4L4 63h28c26.5 0 28.2 0 27.5-1.8L57.8 55l-1.4-5.8C56 48.2 49.6 48 28 48c-15.8 0-28 .4-28 1zM137.7 48.7c-.4.3-.7 2-.7 3.3 0 1.5-.7 4.7-1.5 7-.8 2.4-1.4 4.4-1.3 4.5.2.2 12.4 0 27.2-.4l27-.5 1.7-3c1-1.7 2.2-5 2.6-7.3l.7-4.2h-27.5c-15 0-27.8.3-28 .7zM125.4 73c-3.6 4-8 6.6-15.3 9.7l-5.5 2.3 29.5-.2 29.5-.3 6.5-3.2c3.6-1.8 8.3-5 10.5-7.2l4-4h-56l-3 3z"/>
  </g>
</svg>
