<?xml version="1.0" standalone="no"?>
<!DOCTYPE svg PUBLIC "-//W3C//DTD SVG 20010904//EN"
 "http://www.w3.org/TR/2001/REC-SVG-20010904/DTD/svg10.dtd">
<svg version="1.0" xmlns="http://www.w3.org/2000/svg"
 width="199.000000pt" height="90.000000pt" viewBox="0 0 199.000000 90.000000"
 preserveAspectRatio="xMidYMid meet">

<g transform="translate(0.000000,90.000000) scale(0.100000,-0.100000)"
fill="#FF2600" stroke="none">
<path d="M1010 840 c-6 -11 -67 -178 -136 -372 -69 -194 -127 -354 -129 -356
-2 -2 -25 17 -51 42 l-48 46 -280 0 -280 0 39 -41 c22 -22 58 -50 80 -61 82
-43 126 -48 431 -48 l291 0 62 182 c61 176 178 520 186 546 7 20 20 14 66 -33
l44 -45 278 0 c161 0 277 4 277 9 0 16 -89 88 -137 111 -70 33 -142 40 -425
40 -247 0 -258 -1 -268 -20z"/>
<path d="M283 835 c-50 -15 -129 -64 -163 -100 l-23 -25 278 0 278 0 38 35
c38 34 120 81 169 96 14 4 -101 7 -255 7 -205 1 -291 -3 -322 -13z"/>
<path d="M39 618 c-7 -13 -18 -47 -25 -75 l-12 -53 279 0 279 0 6 28 c3 15 12
45 20 67 8 23 14 44 14 48 0 4 -124 7 -275 7 -274 0 -274 0 -286 -22z"/>
<path d="M1337 634 c-3 -4 0 -19 8 -35 9 -16 19 -45 23 -66 l8 -38 277 -3
c152 -1 277 1 277 6 0 18 -33 118 -42 130 -8 9 -76 12 -278 12 -146 0 -269 -3
-273 -6z"/>
<path d="M0 411 c0 -5 9 -39 20 -75 l21 -66 280 0 c264 0 281 1 274 18 -3 9
-11 37 -17 62 -6 25 -12 51 -14 58 -3 9 -68 12 -284 12 -158 0 -280 -4 -280
-9z"/>
<path d="M1377 413 c-4 -3 -7 -19 -7 -33 0 -15 -7 -47 -15 -70 -8 -24 -14 -44
-13 -45 2 -2 124 0 272 4 l270 6 17 30 c10 17 21 49 25 73 l7 42 -275 0 c-151
0 -278 -3 -281 -7z"/>
<path d="M1254 169 c-36 -38 -80 -65 -153 -96 l-56 -23 295 2 295 3 65 32 c36
18 83 50 105 72 l39 41 -280 0 -280 0 -30 -31z"/>
</g>
</svg>
